<svg width="127" height="25" viewBox="0 0 127 25" fill="none" xmlns="http://www.w3.org/2000/svg">
<path d="M0.524414 14.65V13.54H11.4744V10.36H2.83441V1.27H1.69441V0.400005H9.04441V4.3H19.4244V0.400005H25.6344V10.36H16.9944V13.54H28.1844V14.65H0.524414ZM1.87441 17.32H25.6644V24.61H20.0544V23.89C15.9144 24.37 10.8944 24.61 4.99441 24.61C4.39441 24.61 3.95441 24.47 3.67441 24.19C3.39441 23.93 3.25441 23.51 3.25441 22.93V18.19H1.87441V17.32ZM8.89441 22.78C8.89441 23.02 8.95441 23.18 9.07441 23.26C9.19441 23.34 9.35441 23.38 9.55441 23.38C10.9344 23.4 12.5944 23.35 14.5344 23.23C16.4744 23.13 18.3144 22.98 20.0544 22.78V18.49H8.89441V22.78ZM19.4244 9.25001V5.41H9.04441V9.25001H19.4244Z" fill="black"/>
<path d="M30.5244 22.27V21.16H49.2144V22.27H30.5244ZM30.9144 8.32001C30.9144 6.14001 31.2044 4.50001 31.7844 3.40001C32.3844 2.30001 33.2844 1.56001 34.4844 1.18001C35.7044 0.780005 37.4144 0.580004 39.6144 0.580004C41.7744 0.580004 43.4444 0.770004 44.6244 1.15C45.8044 1.53 46.6644 2.28 47.2044 3.40001C47.7644 4.50001 48.0444 6.14001 48.0444 8.32001C48.0444 10.5 47.7644 12.13 47.2044 13.21C46.6644 14.29 45.8044 15.02 44.6244 15.4C43.4644 15.78 41.7944 15.97 39.6144 15.97C37.4344 15.97 35.7344 15.78 34.5144 15.4C33.2944 15.02 32.3844 14.29 31.7844 13.21C31.2044 12.11 30.9144 10.48 30.9144 8.32001ZM36.2244 11.86C36.2244 12.76 36.3844 13.47 36.7044 13.99C37.0444 14.51 37.6344 14.77 38.4744 14.77H40.6944C41.5344 14.77 42.1144 14.51 42.4344 13.99C42.7544 13.47 42.9144 12.76 42.9144 11.86V4.51001C42.9144 3.61001 42.7544 2.9 42.4344 2.38C42.1144 1.86001 41.5344 1.60001 40.6944 1.60001H38.4744C37.6344 1.60001 37.0444 1.86001 36.7044 2.38C36.3844 2.9 36.2244 3.61001 36.2244 4.51001V11.86ZM49.6044 22.9H50.6244C51.0444 22.9 51.2544 22.67 51.2544 22.21V1.06001H49.6044V0.130005H58.1844V1.06001H56.6244V22.24C56.6244 22.5 56.6944 22.67 56.8344 22.75C56.9744 22.85 57.1744 22.9 57.4344 22.9H58.3944V23.83H49.6044V22.9Z" fill="black"/>
<path d="M68.1554 20.98C68.1554 20.22 68.4154 19.57 68.9354 19.03C69.4754 18.49 70.1354 18.22 70.9154 18.22C71.6754 18.22 72.3254 18.49 72.8654 19.03C73.4054 19.57 73.6754 20.22 73.6754 20.98C73.6754 21.48 73.5454 21.96 73.2854 22.42C75.0854 21.96 76.3854 21.12 77.1854 19.9C78.0054 18.68 78.4954 17.33 78.6554 15.85C78.8154 14.35 78.9054 12.24 78.9254 9.52001V8.50001H70.5854V7.15H78.9254V1.99H72.8054C71.8654 1.99 71.4554 2.39 71.5754 3.19L71.6054 3.43001C71.6054 3.85 71.4354 4.2 71.0954 4.48C70.7754 4.76 70.3354 4.9 69.7754 4.9C69.1754 4.9 68.7354 4.73 68.4554 4.39001C68.1754 4.05001 68.0354 3.59001 68.0354 3.01001C68.0354 2.45001 68.2854 1.96001 68.7854 1.54C69.2854 1.1 69.9954 0.880004 70.9154 0.880004H84.7154V11.35C84.7154 13.75 84.0754 15.89 82.7954 17.77C81.5154 19.65 79.8554 21.1 77.8154 22.12C75.7754 23.16 73.6754 23.68 71.5154 23.68C70.4154 23.68 69.5754 23.43 68.9954 22.93C68.4354 22.43 68.1554 21.78 68.1554 20.98ZM87.3854 22.9H88.4054C88.8254 22.9 89.0354 22.67 89.0354 22.21V1.06001H87.3854V0.130005H96.1154V1.06001H94.5554V7.39001H98.5154V8.77001H94.5554V22.24C94.5554 22.5 94.6254 22.67 94.7654 22.75C94.9054 22.85 95.1054 22.9 95.3654 22.9H96.3254V23.83H87.3854V22.9Z" fill="black"/>
<path d="M124.015 0.880004V1.99H107.275V15.19H124.195V16.3H101.065V1.75001H99.9254V0.880004H124.015ZM98.8154 22.78H126.475V23.89H98.8154V22.78Z" fill="black"/>
</svg>
